<?xml version="1.0" encoding="UTF-8" standalone="no"?>
<!-- Created with Inkscape (http://www.inkscape.org/) -->

<svg
   width="1000mm"
   height="1000mm"
   viewBox="0 0 1000 1000"
   version="1.1"
   id="svg1"
   xml:space="preserve"
   sodipodi:docname="layers2.svg"
   inkscape:version="1.3 (0e150ed6c4, 2023-07-21)"
   xmlns:inkscape="http://www.inkscape.org/namespaces/inkscape"
   xmlns:sodipodi="http://sodipodi.sourceforge.net/DTD/sodipodi-0.dtd"
   xmlns="http://www.w3.org/2000/svg"
   xmlns:svg="http://www.w3.org/2000/svg"><sodipodi:namedview
     id="namedview1"
     pagecolor="#ffffff"
     bordercolor="#000000"
     borderopacity="0.25"
     inkscape:showpageshadow="2"
     inkscape:pageopacity="0.0"
     inkscape:pagecheckerboard="0"
     inkscape:deskcolor="#d1d1d1"
     inkscape:document-units="mm"
     inkscape:zoom="0.14898687"
     inkscape:cx="2033.7363"
     inkscape:cy="2006.8883"
     inkscape:window-width="1920"
     inkscape:window-height="1010"
     inkscape:window-x="0"
     inkscape:window-y="0"
     inkscape:window-maximized="1"
     inkscape:current-layer="layer1" /><defs
     id="defs1"><mask
       maskUnits="userSpaceOnUse"
       id="mask2"><g
         id="g14"
         transform="scale(0.80000001,0.48000001)"><g
           id="g10"><g
             id="g8"><path
               style="fill:#ffffff;fill-rule:evenodd;stroke-linecap:round;stroke-linejoin:round"
               d="m 825,5 a 45,45 0 0 0 -45,45 v 170 a 45,45 0 0 0 45,45 45,45 0 0 0 45,-45 V 50 A 45,45 0 0 0 825,5 Z"
               id="path6" /><path
               style="fill:#ffffff;fill-rule:evenodd;stroke-linecap:round;stroke-linejoin:round"
               d="m 825,5 a 45,45 0 0 0 -31.82031,13.179687 l -120,120.000003 a 45,45 0 0 0 0,63.64062 45,45 0 0 0 63.64062,0 l 120,-119.999998 a 45,45 0 0 0 0,-63.640625 A 45,45 0 0 0 825,5 Z"
               id="path7" /></g><g
             id="g9"><path
               style="fill:#ffffff;fill-rule:evenodd;stroke-linecap:round;stroke-linejoin:round"
               d="m 170,5 a 45,45 0 0 0 -45,45 v 170 a 45,45 0 0 0 45,45 45,45 0 0 0 45,-45 V 50 A 45,45 0 0 0 170,5 Z"
               id="path8" /><path
               style="fill:#ffffff;fill-rule:evenodd;stroke-linecap:round;stroke-linejoin:round"
               d="m 170,5 a 45,45 0 0 0 -31.82031,13.179687 45,45 0 0 0 0,63.640625 l 120,119.999998 a 45,45 0 0 0 63.64062,0 45,45 0 0 0 0,-63.64062 l -120,-120.000003 A 45,45 0 0 0 170,5 Z"
               id="path9" /></g></g><g
           style="fill:none"
           id="g13"
           transform="matrix(15.740741,0,0,15.740741,75.000002,150)"><path
             fill-rule="evenodd"
             clip-rule="evenodd"
             d="m 19.4414,3.24 c 0,-1.7894 1.4506,-3.24 3.24,-3.24 11.9294,0 21.6,9.67065 21.6,21.6 0,1.7894 -1.4506,3.24 -3.24,3.24 -1.7894,0 -3.24,-1.4506 -3.24,-3.24 0,-8.3506 -6.7694,-15.12 -15.12,-15.12 -1.7894,0 -3.24,-1.4506 -3.24,-3.24 z"
             fill="#0dbd8b"
             id="path10"
             style="fill:#ffffff;fill-opacity:1" /><path
             fill-rule="evenodd"
             clip-rule="evenodd"
             d="m 34.5586,50.76 c 0,1.7894 -1.4506,3.24 -3.24,3.24 C 19.3893,54 9.71861,44.3294 9.71861,32.4 c 0,-1.7894 1.45059,-3.24 3.23999,-3.24 1.7894,0 3.24,1.4506 3.24,3.24 0,8.3505 6.7695,15.12 15.12,15.12 1.7894,0 3.24,1.4506 3.24,3.24 z"
             fill="#0dbd8b"
             id="path11"
             style="fill:#ffffff;fill-opacity:1" /><path
             fill-rule="evenodd"
             clip-rule="evenodd"
             d="M 3.24,34.5601 C 1.4506,34.5601 -6.34076e-8,33.1095 -1.41625e-7,31.3201 -6.63074e-7,19.3907 9.67065,9.72007 21.6,9.72007 c 1.7894,0 3.24,1.45063 3.24,3.24003 0,1.7894 -1.4506,3.24 -3.24,3.24 -8.3505,0 -15.12,6.7694 -15.12,15.12 0,1.7894 -1.4506,3.24 -3.24,3.24 z"
             fill="#0dbd8b"
             id="path12"
             style="fill:#ffffff;fill-opacity:1" /><path
             fill-rule="evenodd"
             clip-rule="evenodd"
             d="m 50.76,19.4399 c 1.7894,0 3.24,1.4506 3.24,3.24 0,11.9294 -9.6706,21.6 -21.6,21.6 -1.7894,0 -3.24,-1.4506 -3.24,-3.24 0,-1.7894 1.4506,-3.24 3.24,-3.24 8.3505,0 15.12,-6.7694 15.12,-15.12 0,-1.7894 1.4506,-3.24 3.24,-3.24 z"
             fill="#0dbd8b"
             id="path13"
             style="fill:#ffffff;fill-opacity:1" /></g></g></mask></defs><g
     id="layer1"><g
       id="g4"
       transform="scale(1.25,2.0833333)"
       style="display:inline"
       mask="url(#mask2)"><rect
         fill="#5bcefa"
         width="800"
         height="480"
         id="rect1"
         x="0"
         y="0" /><rect
         fill="#f5a9b8"
         width="800"
         height="288"
         y="96"
         id="rect2"
         x="0" /><rect
         fill="#ffffff"
         width="800"
         height="96"
         y="192"
         id="rect3"
         x="0" /></g></g></svg>
