<?xml version="1.0" encoding="UTF-8" standalone="no"?>
<!-- Created with Inkscape (http://www.inkscape.org/) -->

<svg
   width="999.91315mm"
   height="619.99854mm"
   viewBox="0 0 999.91315 619.99854"
   version="1.1"
   id="svg1"
   xml:space="preserve"
   xmlns="http://www.w3.org/2000/svg"
   xmlns:svg="http://www.w3.org/2000/svg"><defs
     id="defs1"><mask
       maskUnits="userSpaceOnUse"
       id="mask22"><g
         id="g26"
         transform="matrix(0.79999972,6.6938272e-4,-6.9510518e-4,0.76373068,1.4220437,-284.1083)"><g
           id="g23"
           transform="matrix(0.71427884,0,0,0.71427884,68.576687,376.42861)"><path
             style="fill:#ffffff;fill-rule:evenodd;stroke-linecap:round;stroke-linejoin:round"
             d="m 825,5 a 45,45 0 0 0 -45,45 v 170 a 45,45 0 0 0 45,45 45,45 0 0 0 45,-45 V 50 A 45,45 0 0 0 825,5 Z"
             id="path22" /><path
             style="fill:#ffffff;fill-rule:evenodd;stroke-linecap:round;stroke-linejoin:round"
             d="m 825,5 a 45,45 0 0 0 -31.82031,13.179687 l -120,120.000003 a 45,45 0 0 0 0,63.64062 45,45 0 0 0 63.64062,0 l 120,-119.999998 a 45,45 0 0 0 0,-63.640625 A 45,45 0 0 0 825,5 Z"
             id="path23" /></g><g
           id="g25"
           transform="matrix(0.71427884,0,0,0.71427884,220.71587,376.42861)"><path
             style="fill:#ffffff;fill-rule:evenodd;stroke-linecap:round;stroke-linejoin:round"
             d="m 170,5 a 45,45 0 0 0 -45,45 v 170 a 45,45 0 0 0 45,45 45,45 0 0 0 45,-45 V 50 A 45,45 0 0 0 170,5 Z"
             id="path24" /><path
             style="fill:#ffffff;fill-rule:evenodd;stroke-linecap:round;stroke-linejoin:round"
             d="m 170,5 a 45,45 0 0 0 -31.82031,13.179687 45,45 0 0 0 0,63.640625 l 120,119.999998 a 45,45 0 0 0 63.64062,0 45,45 0 0 0 0,-63.64062 l -120,-120.000003 A 45,45 0 0 0 170,5 Z"
             id="path25" /></g><path
           id="path26"
           class="st0"
           d="M 498.77996,544.40835 C 395.16169,544.5892 307.29044,614.64373 280.31897,710.0858 257.20494,659.96154 206.15665,624.68868 146.94622,624.79203 65.531693,624.93412 -0.96363474,691.66229 -0.82154001,773.07648 -0.6794447,854.49099 66.048403,920.98632 147.46293,920.84422 c 59.21043,-0.10334 110.13527,-35.55385 133.89664,-85.75993 27.30445,95.34703 115.4197,165.09471 219.03798,164.91388 102.79583,-0.17945 189.84642,-69.41041 217.64317,-163.20908 23.93472,49.30041 74.98187,83.75085 133.3699,83.64894 81.4142,-0.14209 147.90985,-66.86994 147.76775,-148.28447 -0.14209,-81.41419 -66.87026,-147.90984 -148.28446,-147.76775 -58.38803,0.10191 -108.49219,34.7289 -133.07709,84.11399 -28.12687,-95.3456 -116.241,-164.27087 -219.03686,-164.09145 z m 0.15214,87.17082 c 78.12483,-0.13635 140.73404,62.25436 140.8704,140.37921 0.13634,78.12513 -62.25468,140.73403 -140.37952,140.87039 C 421.29815,912.96512 358.68926,850.5744 358.5529,772.44926 358.41511,693.502 420.80726,631.71553 498.9321,631.57917 Z m -351.83518,79.56157 c 34.53943,-0.0603 60.90233,27.03175 60.96118,60.74905 0.0603,34.53945 -27.03175,60.90235 -60.74876,60.9612 -34.53941,0.0603 -60.902642,-27.03175 -60.961489,-60.74878 -0.05885,-33.7173 26.209649,-60.90118 60.749069,-60.96147 z m 703.12385,-1.22718 c 34.53942,-0.0603 60.90264,27.03175 60.96149,60.74905 0.0603,34.53944 -27.03206,60.90235 -60.74907,60.96119 -34.53942,0.0603 -60.90264,-27.03175 -60.96149,-60.74876 -0.0589,-33.71731 26.20965,-60.9012 60.74907,-60.96148 z"
           style="fill:#ffffff;fill-opacity:1;stroke-width:8.22368" /></g></mask></defs><g
     id="layer1"
     transform="translate(-5.0270785e-4,239.99997)"><g
       id="g4"
       transform="matrix(1.2499995,-0.00109558,0.00113768,1.3093611,-0.63205954,-247.99806)"
       style="display:inline"
       mask="url(#mask22)"><rect
         fill="#5bcefa"
         width="800"
         height="480"
         id="rect1"
         x="0"
         y="0" /><rect
         fill="#f5a9b8"
         width="800"
         height="288"
         y="96"
         id="rect2"
         x="0" /><rect
         fill="#ffffff"
         width="800"
         height="96"
         y="192"
         id="rect3"
         x="0" /></g></g><style
     type="text/css"
     id="style1">
	.st0{fill:#0082C9;}
</style></svg>
