<?xml version="1.0" encoding="UTF-8" standalone="no"?>
<!-- Created with Inkscape (http://www.inkscape.org/) -->

<svg
   width="1000mm"
   height="1000mm"
   viewBox="0 0 1000 1000"
   version="1.1"
   id="svg1"
   xml:space="preserve"
   sodipodi:docname="layers.svg"
   xmlns:inkscape="http://www.inkscape.org/namespaces/inkscape"
   xmlns:sodipodi="http://sodipodi.sourceforge.net/DTD/sodipodi-0.dtd"
   xmlns="http://www.w3.org/2000/svg"
   xmlns:svg="http://www.w3.org/2000/svg"><sodipodi:namedview
     id="namedview1"
     pagecolor="#ffffff"
     bordercolor="#000000"
     borderopacity="0.25"
     inkscape:showpageshadow="2"
     inkscape:pageopacity="0.0"
     inkscape:pagecheckerboard="0"
     inkscape:deskcolor="#d1d1d1"
     inkscape:document-units="mm"
     inkscape:zoom="0.30876875"
     inkscape:cx="1889.7638"
     inkscape:cy="1889.7638"
     inkscape:window-width="2560"
     inkscape:window-height="1372"
     inkscape:window-x="1920"
     inkscape:window-y="40"
     inkscape:window-maximized="1"
     inkscape:current-layer="svg1" /><defs
     id="defs1"><mask
       maskUnits="userSpaceOnUse"
       id="mask16"><g
         id="g21"
         transform="scale(0.80000001,0.48000001)"><g
           id="g17"><path
             style="fill:#ffffff;fill-rule:evenodd;stroke-linecap:round;stroke-linejoin:round"
             d="m 825,5 a 45,45 0 0 0 -45,45 v 170 a 45,45 0 0 0 45,45 45,45 0 0 0 45,-45 V 50 A 45,45 0 0 0 825,5 Z"
             id="path16" /><path
             style="fill:#ffffff;fill-rule:evenodd;stroke-linecap:round;stroke-linejoin:round"
             d="m 825,5 a 45,45 0 0 0 -31.82031,13.179687 l -120,120.000003 a 45,45 0 0 0 0,63.64062 45,45 0 0 0 63.64062,0 l 120,-119.999998 a 45,45 0 0 0 0,-63.640625 A 45,45 0 0 0 825,5 Z"
             id="path17" /></g><g
           id="g19"><path
             style="fill:#ffffff;fill-rule:evenodd;stroke-linecap:round;stroke-linejoin:round"
             d="m 170,5 a 45,45 0 0 0 -45,45 v 170 a 45,45 0 0 0 45,45 45,45 0 0 0 45,-45 V 50 A 45,45 0 0 0 170,5 Z"
             id="path18" /><path
             style="fill:#ffffff;fill-rule:evenodd;stroke-linecap:round;stroke-linejoin:round"
             d="m 170,5 a 45,45 0 0 0 -31.82031,13.179687 45,45 0 0 0 0,63.640625 l 120,119.999998 a 45,45 0 0 0 63.64062,0 45,45 0 0 0 0,-63.64062 l -120,-120.000003 A 45,45 0 0 0 170,5 Z"
             id="path19" /></g><g
           id="g20"><path
             style="fill:#ffffff"
             d="M 500,200 C 369.27655,200 249.07611,238.92876 157.1582,307.86719 65.240299,376.80562 0,481.12795 0,600 0,718.87205 65.240299,823.19438 157.1582,892.13281 249.07611,961.07124 369.27655,1000 500,1000 625.94902,1000 747.48812,963.64807 842.8418,892.13281 938.19547,820.61756 1000,714.87592 1000,600 1000,485.12408 938.19547,379.38244 842.8418,307.86719 747.48812,236.35193 625.94902,200 500,200 Z m 0,200 c 86.22417,0 168.16637,26.86061 222.8418,67.86719 C 777.51723,508.87376 800,555.74603 800,600 800,644.25397 777.51723,691.12624 722.8418,732.13281 668.16637,773.13939 586.22417,800 500,800 409.80955,800 330.01182,771.77303 277.1582,732.13281 224.30458,692.4926 200,646.81337 200,600 200,553.18663 224.30458,507.5074 277.1582,467.86719 330.01182,428.22697 409.80955,400 500,400 Z"
             id="path20" /></g></g></mask></defs><g
     id="layer1"><g
       id="g4"
       transform="scale(1.25,2.0833333)"
       style="display:inline"
       mask="url(#mask16)"><rect
         fill="#5bcefa"
         width="800"
         height="480"
         id="rect1"
         x="0"
         y="0" /><rect
         fill="#f5a9b8"
         width="800"
         height="288"
         y="96"
         id="rect2"
         x="0" /><rect
         fill="#ffffff"
         width="800"
         height="96"
         y="192"
         id="rect3"
         x="0" /></g></g></svg>
